<?xml version="1.0" standalone="no"?>
<!DOCTYPE svg PUBLIC "-//W3C//DTD SVG 20010904//EN"
 "http://www.w3.org/TR/2001/REC-SVG-20010904/DTD/svg10.dtd">
<svg version="1.0" xmlns="http://www.w3.org/2000/svg"
 width="593.000000pt" height="593.000000pt" viewBox="0 0 593.000000 593.000000"
 preserveAspectRatio="xMidYMid meet">
<metadata>
Created by potrace 1.14, written by Peter Selinger 2001-2017
</metadata>
<g transform="translate(0.000000,593.000000) scale(0.100000,-0.100000)"
fill="#000000" stroke="none">
<path d="M2947 5923 c-4 -3 -7 -294 -7 -645 l0 -638 -65 0 c-59 0 -65 2 -70
23 -2 12 -32 290 -65 617 -34 327 -63 605 -66 618 -5 24 -29 30 -36 10 -3 -7
25 -295 61 -640 l67 -628 -31 -5 c-42 -6 -105 -11 -105 -9 0 25 -263 1231
-270 1238 -7 7 -14 6 -21 -1 -8 -8 25 -180 119 -624 89 -418 127 -616 120
-620 -12 -8 -118 -22 -123 -17 -2 2 -89 266 -193 587 -105 321 -195 588 -201
594 -8 8 -14 8 -22 0 -7 -7 47 -187 181 -597 105 -322 189 -590 186 -595 -6
-9 -124 -36 -130 -30 -2 2 -115 255 -252 562 -138 310 -253 557 -260 557 -7 0
-15 -4 -18 -9 -3 -5 106 -260 242 -567 l249 -559 -56 -17 c-31 -10 -62 -19
-69 -20 -8 -2 -131 201 -310 511 -164 283 -303 516 -310 519 -6 2 -14 -3 -17
-11 -4 -8 122 -235 285 -517 160 -277 292 -508 293 -513 1 -5 -29 -20 -67 -34
-56 -20 -71 -22 -77 -11 -4 7 -156 215 -336 463 -294 403 -363 487 -363 443 0
-7 151 -220 335 -473 l334 -460 -72 -33 -72 -33 -29 33 c-338 380 -712 788
-720 785 -5 -2 -11 -8 -13 -14 -3 -7 158 -192 356 -412 199 -220 361 -403 361
-406 0 -2 -32 -21 -71 -41 l-71 -35 -27 24 c-266 244 -746 667 -754 664 -6 -2
-12 -8 -14 -14 -2 -6 165 -162 372 -348 206 -186 375 -341 375 -344 0 -4 -32
-25 -72 -48 l-72 -41 -31 21 c-16 12 -187 136 -380 276 -192 140 -357 254
-365 255 -54 4 8 -49 355 -299 206 -148 375 -273 375 -276 0 -3 -34 -27 -76
-54 -63 -39 -79 -46 -97 -37 -12 5 -179 100 -371 211 -317 184 -386 217 -374
179 3 -7 165 -105 361 -218 196 -113 357 -208 357 -211 0 -3 -37 -31 -83 -62
l-83 -57 -338 150 c-186 82 -343 147 -347 144 -5 -3 -9 -11 -9 -18 0 -7 144
-77 325 -157 178 -79 325 -147 325 -150 0 -9 -169 -139 -181 -139 -6 0 -135
41 -287 90 -189 62 -279 87 -286 80 -20 -20 20 -37 274 -120 140 -45 257 -84
259 -86 2 -2 -12 -16 -30 -31 -18 -15 -60 -52 -92 -80 -33 -29 -68 -53 -78
-53 -11 0 -105 18 -210 41 -139 30 -194 38 -202 30 -20 -20 5 -29 178 -66 94
-20 178 -39 188 -41 15 -5 -2 -26 -85 -108 l-103 -102 -108 11 c-112 12 -147
6 -114 -19 10 -8 56 -17 102 -21 l85 -7 -78 -86 c-121 -135 -132 -150 -132
-186 0 -35 17 -58 144 -195 57 -63 58 -65 35 -72 -13 -4 -54 -10 -91 -14 -67
-7 -89 -18 -71 -36 7 -7 48 -6 118 1 l108 12 104 -104 104 -104 -193 -40
c-152 -32 -194 -44 -196 -57 -5 -25 19 -22 235 24 l192 41 95 -83 c53 -46 93
-85 90 -88 -3 -3 -123 -44 -267 -91 -197 -65 -263 -90 -265 -103 -2 -11 3 -17
15 -17 10 0 141 41 291 90 l274 89 93 -72 93 -71 -41 -19 c-23 -10 -168 -75
-322 -143 -154 -69 -284 -129 -289 -135 -6 -6 -6 -13 2 -21 8 -8 93 25 349
139 l337 151 56 -40 c31 -22 69 -50 85 -62 l28 -23 -361 -208 c-199 -115 -362
-215 -362 -222 0 -6 4 -15 10 -18 5 -3 168 86 362 198 194 112 362 209 373
215 18 9 34 2 100 -40 75 -48 78 -51 60 -65 -11 -8 -181 -132 -378 -275 -196
-144 -357 -267 -357 -275 0 -7 7 -13 16 -13 9 0 179 119 377 264 199 144 371
269 383 276 18 11 30 7 98 -30 43 -23 74 -46 69 -50 -4 -4 -174 -157 -378
-340 -203 -183 -370 -338 -370 -344 0 -35 70 21 401 319 201 182 372 334 379
340 10 6 35 -1 85 -25 38 -19 70 -36 70 -40 0 -3 -162 -185 -360 -405 -198
-220 -358 -404 -357 -410 2 -5 10 -10 18 -10 8 0 178 181 377 402 199 222 366
403 370 403 4 0 38 -13 75 -28 l67 -29 -335 -461 c-184 -254 -335 -465 -335
-470 0 -6 6 -12 14 -15 11 -4 115 132 352 459 185 255 339 466 343 468 3 1 36
-9 73 -23 l67 -26 -294 -510 c-162 -281 -295 -516 -295 -523 0 -8 8 -12 18
-10 11 2 122 184 308 506 160 277 295 507 300 512 12 12 124 -18 130 -34 2 -6
-104 -254 -236 -551 -132 -297 -241 -547 -243 -555 -1 -9 6 -15 16 -15 14 0
70 118 264 555 136 305 247 556 249 558 2 3 127 -28 132 -33 2 -2 -82 -268
-187 -592 -105 -324 -191 -593 -191 -596 0 -4 9 -7 20 -7 15 0 24 16 45 81 38
122 357 1104 359 1106 1 1 32 -3 70 -9 61 -10 67 -13 62 -32 -16 -67 -256
-1205 -256 -1214 0 -7 9 -12 20 -12 11 0 20 3 20 8 0 15 260 1225 264 1229 2
3 33 1 68 -4 l64 -8 -67 -630 c-36 -347 -64 -633 -62 -638 9 -15 33 -6 37 15
3 13 32 291 66 618 34 327 63 604 65 615 4 18 11 20 70 17 l65 -4 0 -638 c0
-538 2 -639 14 -643 8 -3 17 -3 20 0 3 4 6 293 6 644 l0 637 66 4 c39 2 68 -1
70 -7 3 -8 134 -1240 134 -1259 0 -3 9 -6 20 -6 11 0 20 6 20 13 0 6 -30 293
-66 635 -36 343 -64 625 -62 627 2 2 32 5 68 7 l64 3 131 -615 c108 -506 134
-616 148 -618 13 -3 17 3 16 25 0 15 -58 296 -128 623 l-127 595 65 12 c35 7
66 11 69 9 2 -3 89 -267 194 -587 104 -321 192 -587 194 -591 8 -13 34 -9 34
5 0 11 -355 1115 -376 1170 -4 12 7 18 53 27 31 7 62 14 68 17 7 2 117 -234
261 -557 200 -451 253 -560 268 -560 14 0 17 5 12 23 -3 12 -114 265 -246 561
-132 297 -237 542 -233 546 12 10 124 42 129 37 3 -2 137 -233 299 -513 218
-377 298 -509 312 -509 10 0 17 6 15 13 -1 7 -133 241 -293 518 -160 278 -290
507 -288 509 2 2 33 14 69 28 l65 24 305 -420 c168 -231 322 -442 343 -469 36
-46 64 -56 54 -19 -2 9 -149 216 -326 461 -178 244 -325 449 -327 455 -3 7 26
24 67 40 l71 29 25 -29 c159 -184 709 -785 719 -785 8 0 14 7 14 15 0 8 -163
195 -361 416 l-362 402 74 38 74 37 30 -27 c270 -249 738 -661 750 -661 8 0
15 6 15 14 0 7 -169 165 -375 351 -206 185 -375 338 -375 340 0 5 139 85 148
85 5 0 178 -122 383 -272 206 -149 381 -273 390 -275 30 -8 30 15 1 39 -16 12
-186 138 -380 278 -261 190 -348 258 -339 266 7 6 42 30 80 53 l67 41 371
-215 c205 -118 376 -212 380 -209 25 15 -4 40 -138 117 -239 137 -568 328
-571 332 -2 1 36 30 83 63 l86 60 322 -145 c358 -160 371 -165 365 -137 -3 17
-163 93 -627 299 -21 10 -18 14 60 75 46 36 88 68 94 72 6 4 134 -33 283 -83
150 -49 279 -89 288 -89 9 0 14 7 12 17 -2 13 -69 39 -270 106 l-267 88 96 84
c53 47 99 85 102 85 4 0 90 -18 191 -40 210 -45 233 -48 228 -23 -2 14 -42 25
-196 58 l-192 40 104 104 104 104 102 -11 c130 -15 130 -15 130 7 0 17 -10 20
-67 26 -138 13 -135 3 -32 118 50 56 98 117 105 135 20 45 5 73 -107 197 l-90
100 63 8 c113 14 128 18 128 32 0 22 -9 23 -122 10 l-107 -11 -103 103 c-68
69 -97 104 -87 107 17 6 352 76 362 76 4 0 7 9 7 20 0 11 -6 20 -13 20 -7 0
-96 -18 -197 -40 -101 -22 -193 -40 -203 -40 -10 0 -61 37 -114 82 l-95 83
271 88 c233 75 271 91 271 107 0 11 -3 20 -6 20 -3 0 -132 -41 -286 -91 -154
-50 -285 -88 -291 -86 -7 3 -50 35 -95 71 l-84 66 54 25 c29 13 175 78 323
144 209 93 270 124 270 138 0 11 -6 17 -15 15 -8 -2 -162 -68 -342 -148 l-327
-145 -81 57 c-45 31 -80 60 -78 65 3 8 84 56 525 309 126 73 183 110 183 123
0 9 -6 17 -12 17 -7 0 -76 -37 -153 -81 -361 -210 -587 -339 -594 -339 -4 0
-42 22 -85 49 l-77 49 53 40 c58 43 493 359 626 455 45 32 82 63 82 68 0 36
-60 -2 -415 -259 l-385 -280 -75 41 c-41 23 -74 45 -72 48 1 4 169 157 372
340 204 183 370 340 370 348 0 9 -6 16 -12 16 -7 0 -177 -148 -379 -330 -201
-181 -374 -336 -384 -343 -16 -11 -28 -8 -90 23 l-72 36 19 22 c107 120 662
738 681 759 26 28 25 67 -1 51 -8 -4 -177 -189 -376 -410 l-362 -402 -62 26
c-34 15 -66 30 -71 34 -4 4 141 212 323 462 182 251 331 463 331 471 0 9 -6
16 -14 16 -7 0 -160 -201 -339 -447 -179 -247 -332 -456 -339 -466 -13 -17
-16 -17 -73 4 -33 12 -64 26 -68 30 -5 4 121 231 279 504 158 274 289 508 292
521 15 81 -48 -17 -324 -494 l-298 -518 -66 19 c-36 11 -67 21 -68 23 -2 1
107 253 244 559 186 420 244 559 236 567 -8 8 -15 9 -22 2 -5 -5 -120 -256
-254 -558 -134 -301 -246 -550 -249 -553 -3 -2 -34 2 -69 10 -53 11 -62 17
-60 33 2 10 87 274 188 585 101 312 184 574 184 583 0 11 -6 16 -17 14 -13 -2
-63 -144 -209 -593 l-192 -590 -43 2 c-62 3 -89 11 -89 27 0 7 56 277 125 601
69 323 125 599 125 612 0 17 -5 24 -17 21 -13 -2 -41 -120 -148 -623 l-131
-620 -40 3 c-54 4 -94 12 -94 20 0 4 30 288 66 631 64 612 67 668 34 635 -8
-8 -140 -1195 -140 -1259 0 -13 -10 -15 -67 -13 l-68 3 -3 643 c-2 525 -5 642
-15 642 -8 0 -17 -3 -20 -7z m243 -1329 c756 -66 1592 -503 2327 -1217 151
-147 329 -337 360 -383 19 -30 11 -43 -90 -158 -549 -616 -1268 -1120 -1917
-1344 -325 -112 -583 -156 -910 -157 -223 0 -298 8 -517 51 -698 139 -1427
568 -2094 1233 -220 220 -309 321 -309 351 0 24 138 179 324 365 400 398 876
743 1313 952 525 250 1017 351 1513 307z"/>
<path d="M2655 4485 c-706 -100 -1442 -505 -2091 -1150 -216 -214 -314 -329
-314 -366 0 -40 67 -118 299 -350 659 -658 1379 -1061 2081 -1163 653 -95
1335 95 2035 568 133 90 313 227 420 320 232 201 537 512 578 590 17 31 17 37
3 64 -42 82 -427 468 -641 643 -560 458 -1108 731 -1670 831 -148 26 -553 34
-700 13z m648 -50 c444 -70 861 -241 1292 -528 242 -162 477 -352 691 -559
169 -164 344 -357 344 -379 0 -22 -141 -182 -294 -333 -348 -345 -726 -625
-1118 -830 -276 -144 -569 -245 -863 -297 -153 -27 -473 -37 -636 -20 -642 67
-1331 415 -1970 994 -175 159 -459 459 -459 486 0 24 276 317 436 462 485 442
973 741 1469 903 177 58 335 90 575 120 75 9 439 -4 533 -19z"/>
<path d="M2790 4263 c-429 -65 -787 -316 -979 -683 -62 -119 -85 -179 -117
-305 -35 -135 -44 -365 -20 -512 64 -406 320 -762 685 -951 205 -107 368 -146
606 -145 172 0 281 17 421 66 382 134 677 429 811 811 49 140 66 249 66 421 1
238 -38 401 -145 606 -187 361 -543 619 -940 684 -84 13 -321 19 -388 8z m380
-456 c298 -83 516 -284 609 -564 139 -414 -51 -865 -444 -1053 -271 -130 -600
-108 -846 56 -460 305 -524 952 -132 1336 123 120 261 195 428 232 87 19 304
15 385 -7z"/>
<path d="M2800 3664 c-16 -42 -11 -76 17 -117 l27 -39 -23 -40 c-12 -21 -26
-58 -31 -81 -8 -41 -8 -41 -9 21 -1 69 -19 97 -68 108 -53 11 -85 27 -100 51
-23 35 -33 28 -33 -23 0 -41 4 -50 41 -84 l41 -37 -7 -68 -8 -69 -19 51 c-22
59 -46 73 -125 70 -40 -2 -58 3 -82 21 l-31 23 0 -24 c0 -38 41 -91 80 -103
39 -13 55 -38 63 -103 l5 -43 -31 29 c-45 43 -58 44 -118 16 -42 -19 -64 -23
-97 -19 -40 5 -42 4 -32 -13 21 -41 60 -61 116 -61 49 0 55 -2 69 -30 20 -38
19 -43 -4 -30 -36 19 -64 11 -106 -30 -24 -24 -59 -45 -85 -53 l-45 -13 35
-22 c42 -26 61 -27 116 -6 l42 16 48 -37 c27 -21 51 -39 53 -41 2 -2 -23 -1
-56 2 -54 6 -62 4 -81 -16 -12 -13 -27 -42 -35 -64 -9 -28 -25 -49 -51 -66
-32 -21 -35 -25 -19 -31 44 -18 83 -9 123 27 33 30 45 35 68 29 15 -4 56 -10
92 -13 58 -6 63 -8 44 -19 -12 -7 -40 -15 -63 -19 -65 -10 -87 -34 -96 -99 -5
-43 -14 -65 -38 -92 l-32 -36 50 5 c50 6 60 14 108 82 15 22 26 26 69 26 l50
0 -31 -29 c-35 -32 -36 -39 -20 -109 10 -42 9 -54 -5 -82 -18 -38 -16 -45 12
-36 37 12 70 46 77 79 12 62 16 67 58 78 23 7 46 16 51 21 27 23 24 4 -3 -27
-38 -44 -39 -73 -5 -131 19 -33 25 -54 22 -84 -4 -50 10 -52 47 -8 24 29 27
38 22 86 -6 58 -10 51 65 113 l37 30 -6 -35 c-9 -54 3 -79 47 -106 41 -25 70
-64 70 -95 0 -24 20 -18 30 11 16 41 12 82 -12 123 l-22 39 32 63 32 64 0 -56
c0 -72 18 -95 90 -114 40 -10 63 -24 82 -47 27 -33 27 -33 29 -8 4 65 -7 97
-41 117 -38 22 -42 40 -33 123 l8 65 27 -57 c31 -66 49 -74 129 -64 41 6 57 3
85 -14 20 -11 37 -20 39 -20 2 0 0 15 -6 33 -11 40 -61 87 -94 87 -29 0 -50
29 -60 84 l-7 39 37 -31 c42 -38 53 -39 107 -11 32 17 53 20 90 16 l48 -6 -15
29 c-20 38 -63 60 -114 58 -23 -1 -42 1 -44 3 -14 18 -47 82 -44 85 2 2 18 -3
35 -12 39 -19 63 -12 113 33 26 23 52 37 79 40 38 5 40 7 25 23 -30 33 -72 44
-114 31 -59 -17 -70 -14 -118 30 l-44 40 44 -6 c66 -10 84 0 117 64 20 41 38
62 59 71 51 21 33 40 -38 40 -27 0 -45 -8 -69 -30 -39 -35 -46 -36 -103 -10
-30 13 -37 20 -23 20 36 0 74 38 74 73 0 48 17 97 42 124 l21 23 -40 0 c-44 0
-76 -23 -105 -78 -16 -29 -21 -32 -65 -32 -26 0 -59 -3 -73 -6 -23 -4 -24 -4
-6 8 10 7 32 24 48 37 32 26 32 32 12 138 -4 20 0 43 9 62 19 37 12 44 -23 26
-41 -21 -70 -63 -70 -100 0 -36 -14 -52 -57 -64 -15 -5 -37 -13 -48 -17 -17
-7 -16 -3 8 25 35 42 34 73 -5 135 -23 35 -32 61 -32 88 1 33 -1 36 -17 27
-35 -18 -51 -66 -44 -129 7 -56 6 -58 -25 -80 -18 -13 -41 -37 -51 -54 -18
-29 -19 -30 -19 -7 0 13 5 41 11 61 18 58 5 86 -51 121 -34 21 -53 41 -62 65
-14 41 -25 43 -38 8z m277 -376 c69 -25 147 -99 183 -173 21 -42 25 -64 25
-145 0 -80 -4 -103 -25 -145 -31 -64 -101 -134 -164 -165 -66 -32 -175 -39
-247 -16 -251 79 -321 406 -126 581 93 84 232 109 354 63z"/>
</g>
</svg>
